HIERARCHY
ROOT Hips
{
	OFFSET 0.000000 0.000000 0.000000
	CHANNELS 6 Xposition Yposition Zposition Zrotation Yrotation Xrotation 
	JOINT LHipJoint
	{
		OFFSET 0.000000 0.000000 0.000000
		CHANNELS 3 Zrotation Yrotation Xrotation
		JOINT LeftUpLeg
		{
			OFFSET 1.363060 -1.794630 0.839290
			CHANNELS 3 Zrotation Yrotation Xrotation
			JOINT LeftLeg
			{
				OFFSET 2.448110 -6.726130 0.000000
				CHANNELS 3 Zrotation Yrotation Xrotation
				JOINT LeftFoot
				{
					OFFSET 2.562200 -7.039590 0.000000
					CHANNELS 3 Zrotation Yrotation Xrotation
					JOINT LeftToeBase
					{
						OFFSET 0.157640 -0.433110 2.322550
						CHANNELS 3 Zrotation Yrotation Xrotation
						End Site
						{
							OFFSET 0.000000 0.000000 0.000000
						}
					}
				}
			}
		}
	}
	JOINT RHipJoint
	{
		OFFSET 0.000000 0.000000 0.000000
		CHANNELS 3 Zrotation Yrotation Xrotation
		JOINT RightUpLeg
		{
			OFFSET -1.305520 -1.794630 0.839290
			CHANNELS 3 Zrotation Yrotation Xrotation
			JOINT RightLeg
			{
				OFFSET -2.542530 -6.985550 0.000000
				CHANNELS 3 Zrotation Yrotation Xrotation
				JOINT RightFoot
				{
					OFFSET -2.568260 -7.056230 0.000000
					CHANNELS 3 Zrotation Yrotation Xrotation
					JOINT RightToeBase
					{
						OFFSET -0.164730 -0.452590 2.363150
						CHANNELS 3 Zrotation Yrotation Xrotation
						End Site
						{
							OFFSET 0.000000 0.000000 0.000000
						}
					}
				}
			}
		}
	}
	JOINT LowerBack
	{
		OFFSET 0.000000 0.000000 0.000000
		CHANNELS 3 Zrotation Yrotation Xrotation
		JOINT Spine
		{
			OFFSET 0.028270 2.035590 -0.193380
			CHANNELS 3 Zrotation Yrotation Xrotation
			JOINT Spine1
			{
				OFFSET 0.056720 2.048850 -0.042750
				CHANNELS 3 Zrotation Yrotation Xrotation
				JOINT Neck
				{
					OFFSET 0.000000 0.000000 0.000000
					CHANNELS 3 Zrotation Yrotation Xrotation
					JOINT Neck1
					{
						OFFSET -0.054170 1.746240 0.172020
						CHANNELS 3 Zrotation Yrotation Xrotation
						JOINT Head
						{
							OFFSET 0.104070 1.761360 -0.123970
							CHANNELS 3 Zrotation Yrotation Xrotation
							End Site
							{
								OFFSET 0.000000 0.000000 0.000000
							}
						}
					}
				}
				JOINT LeftShoulder
				{
					OFFSET 0.000000 0.000000 0.000000
					CHANNELS 3 Zrotation Yrotation Xrotation
					JOINT LeftArm
					{
						OFFSET 3.362410 1.200890 -0.311210
						CHANNELS 3 Zrotation Yrotation Xrotation
						JOINT LeftForeArm
						{
							OFFSET 4.983000 -0.000000 -0.000000
							CHANNELS 3 Zrotation Yrotation Xrotation
							JOINT LeftHand
							{
								OFFSET 3.483560 -0.000000 -0.000000
								CHANNELS 3 Zrotation Yrotation Xrotation
								JOINT LeftFingerBase
								{
									OFFSET 0.000000 0.000000 0.000000
									CHANNELS 3 Zrotation Yrotation Xrotation
									JOINT LeftHandIndex1
									{
										OFFSET 0.715260 -0.000000 -0.000000
										CHANNELS 3 Zrotation Yrotation Xrotation
										End Site
										{
											OFFSET 0.000000 0.000000 0.000000
										}
									}
								}
								JOINT LThumb
								{
									OFFSET 0.000000 0.000000 0.000000
									CHANNELS 3 Zrotation Yrotation Xrotation
									End Site
									{
										OFFSET 0.000000 0.000000 0.000000
									}
								}
							}
						}
					}
				}
				JOINT RightShoulder
				{
					OFFSET 0.000000 0.000000 0.000000
					CHANNELS 3 Zrotation Yrotation Xrotation
					JOINT RightArm
					{
						OFFSET -3.136600 1.374050 -0.404650
						CHANNELS 3 Zrotation Yrotation Xrotation
						JOINT RightForeArm
						{
							OFFSET -5.241900 -0.000000 -0.000000
							CHANNELS 3 Zrotation Yrotation Xrotation
							JOINT RightHand
							{
								OFFSET -3.444170 -0.000000 -0.000000
								CHANNELS 3 Zrotation Yrotation Xrotation
								JOINT RightFingerBase
								{
									OFFSET 0.000000 0.000000 0.000000
									CHANNELS 3 Zrotation Yrotation Xrotation
									JOINT RightHandIndex1
									{
										OFFSET -0.622530 -0.000000 -0.000000
										CHANNELS 3 Zrotation Yrotation Xrotation
										End Site
										{
											OFFSET 0.000000 0.000000 0.000000
										}
									}
								}
								JOINT RThumb
								{
									OFFSET 0.000000 0.000000 0.000000
									CHANNELS 3 Zrotation Yrotation Xrotation
									End Site
									{
										OFFSET 0.000000 0.000000 0.000000
									}
								}
							}
						}
					}
				}
			}
		}
	}
}
MOTION
Frames: 9
Frame Time: 0.008333
-2.818209 18.002137 -0.602940 -131.338573 88.416530 -128.687179 -10.390170 1.991606 1.404170 -18.027092 14.114316 -25.183743 -2.462736 -0.210635 8.683771 0.899665 8.161820 8.420921 2.580600 -0.000000 -37.301000 9.855443 -4.886219 0.386906 5.637906 -10.284234 4.976872 0.548025 -2.182236 20.968830 -0.722062 -0.819544 25.364768 -0.309700 -0.000000 -72.116200 -0.598375 2.183760 -4.176366 -0.418355 2.102580 -2.938782 -3.622409 2.014720 3.355836 7.133462 -14.768038 -10.024104 -0.083013 0.026959 -0.595664 0.000000 0.000000 0.000000 -5.211972 31.576055 1.122637 -78.208028 34.854694 -0.382683 -4.131687 -20.704904 -0.017967 -2.482662 6.306004 -0.134263 -0.103875 -0.144754 -0.000000 0.000000 0.000000 0.000000 0.000000 0.000000 0.000000 2.424732 -9.084322 0.112250 46.930384 9.261679 5.451313 2.113564 42.235216 0.003350 3.052165 -1.552650 -0.037928 0.067721 -0.079696 0.000000 0.000000 0.000000 0.000000 0.000000 0.000000 0.000000 
-2.603832 18.033849 -0.643399 -125.594722 88.110641 -123.337620 -10.488035 2.096265 1.322897 -18.204303 15.012121 -24.652780 -2.497527 -0.196038 7.763624 0.763341 7.346044 9.884565 2.512000 -0.000000 -39.567800 9.842402 -4.902663 0.315839 5.486181 -10.660944 5.100448 0.455262 -2.239144 22.039795 -0.827889 -1.523519 25.639597 -0.658100 -0.000000 -71.072300 -0.249847 2.208763 -4.071527 -0.337120 2.107201 -2.907372 -3.584442 2.022640 3.371999 7.018129 -15.019830 -9.974377 -0.028476 0.030720 -0.583821 0.000000 0.000000 0.000000 -5.205599 31.850157 1.117063 -78.487526 35.659624 -0.535856 -4.166489 -21.182322 -0.020347 -3.115987 6.802358 -0.183391 -0.101026 -0.148221 -0.000000 0.000000 0.000000 0.000000 0.000000 0.000000 0.000000 2.207299 -9.377548 0.079998 46.674349 9.158340 5.537488 2.081107 42.465153 0.003486 3.181814 -1.579867 -0.040447 0.064568 -0.078613 0.000000 0.000000 0.000000 0.000000 0.000000 0.000000 0.000000 
-2.392710 18.053927 -0.683433 -123.779153 87.809446 -121.917784 -10.610680 2.189782 1.227424 -18.401056 15.902982 -24.154731 -2.515590 -0.171771 7.115532 0.675587 6.759684 11.010315 2.439000 0.000000 -41.153699 9.795824 -4.900243 0.206733 5.293793 -11.115484 5.154489 0.368178 -2.293893 23.232639 -0.949625 -2.627387 25.199155 -1.217400 0.000000 -69.982400 0.056895 2.192591 -3.907163 -0.260503 2.076408 -2.866256 -3.545300 1.994655 3.383877 6.913061 -15.268161 -9.948122 0.017509 0.034262 -0.578758 0.000000 0.000000 0.000000 -5.220624 32.067038 1.127176 -78.809090 36.342502 -0.606306 -4.195118 -21.609903 -0.022830 -3.770774 7.357670 -0.241523 -0.097379 -0.152022 -0.000000 0.000000 0.000000 0.000000 0.000000 0.000000 0.000000 2.034370 -9.676033 0.047990 46.457296 9.048191 5.602740 2.048320 42.712281 0.003638 3.253873 -1.551086 -0.040564 0.061925 -0.078331 0.000000 0.000000 0.000000 0.000000 0.000000 0.000000 0.000000 
-2.184749 18.062291 -0.723101 -123.854132 87.502166 -122.381026 -10.738820 2.274040 1.125122 -18.588173 16.743943 -23.671998 -2.516873 -0.142737 6.700430 0.630167 6.411557 11.796923 2.388300 -0.000001 -41.951800 9.733699 -4.877056 0.064492 5.076618 -11.629892 5.144184 0.286645 -2.344460 24.498374 -1.091332 -4.086229 24.117987 -1.930100 0.000000 -68.833700 0.350300 2.140512 -3.693702 -0.183966 2.013126 -2.817142 -3.506315 1.933935 3.392355 6.817606 -15.507415 -9.942705 0.054294 0.037464 -0.579653 0.000000 0.000000 0.000000 -5.261612 32.224845 1.150747 -79.173691 36.896774 -0.623864 -4.216096 -21.966832 -0.025214 -4.409525 7.918104 -0.305156 -0.093215 -0.155803 -0.000000 0.000000 0.000000 0.000000 0.000000 0.000000 0.000000 1.904853 -9.973577 0.016522 46.277379 8.928698 5.653120 2.017113 42.963016 0.003793 3.276786 -1.474786 -0.038780 0.059839 -0.078628 0.000000 0.000000 0.000000 0.000000 0.000000 0.000000 0.000000 
-1.979716 18.058916 -0.762470 -124.799423 87.184850 -123.697403 -10.864511 2.349331 1.025408 -18.742041 17.482787 -23.180004 -2.501711 -0.113339 6.468872 0.621729 6.305320 12.251013 2.378200 0.000000 -41.897200 9.663579 -4.830104 -0.106279 4.842341 -12.184321 5.071957 0.211634 -2.387872 25.792727 -1.256791 -5.816830 22.489087 -2.708601 0.000000 -67.553000 0.642028 2.058182 -3.443570 -0.106351 1.921743 -2.762309 -3.468683 1.844920 3.398108 6.732242 -15.731899 -9.955057 0.081561 0.040231 -0.585579 0.000000 0.000000 0.000000 -5.328273 32.321886 1.185494 -79.583136 37.323607 -0.616647 -4.228311 -22.242864 -0.027330 -4.998453 8.441084 -0.369885 -0.088823 -0.159247 -0.000000 0.000000 0.000000 0.000000 0.000000 0.000000 0.000000 1.817456 -10.263606 -0.013801 46.137307 8.796984 5.690258 1.989565 43.201901 0.003933 3.261371 -1.363917 -0.035491 0.058326 -0.079254 0.000000 0.000000 0.000000 0.000000 0.000000 0.000000 0.000000 
-1.777342 18.043783 -0.801539 -126.036890 86.856761 -125.279107 -10.984330 2.414142 0.935916 -18.844260 18.075752 -22.660160 -2.471492 -0.087207 6.380787 0.644405 6.423753 12.373434 2.411000 -0.000000 -40.945101 9.589106 -4.758015 -0.299368 4.599212 -12.755938 4.935935 0.145102 -2.421379 27.076974 -1.448817 -7.718443 20.423892 -3.457800 0.000000 -66.056399 0.938778 1.950942 -3.169673 -0.027354 1.806582 -2.704257 -3.433636 1.731898 3.401572 6.658277 -15.936592 -9.982486 0.099286 0.042500 -0.595716 0.000000 0.000000 0.000000 -5.418196 32.357650 1.229344 -80.037689 37.629314 -0.605604 -4.230769 -22.438820 -0.029063 -5.510719 8.898948 -0.430813 -0.084442 -0.162123 -0.000000 0.000000 0.000000 0.000000 0.000000 0.000000 0.000000 1.770749 -10.539931 -0.042080 46.041930 8.650184 5.712208 1.967744 43.415019 0.004046 3.221108 -1.234312 -0.031504 0.057366 -0.079945 0.000000 0.000000 0.000000 0.000000 0.000000 0.000000 0.000000 
-1.577338 18.016916 -0.840369 -127.229913 86.519936 -126.779854 -11.096801 2.465811 0.862140 -18.883957 18.489891 -22.103897 -2.428679 -0.067285 6.409054 0.692313 6.731636 12.155171 2.474700 0.000000 -39.069800 9.512255 -4.661528 -0.507009 4.355119 -13.319956 4.729220 0.088981 -2.443248 28.321182 -1.667674 -9.687699 18.048046 -4.094100 -0.000000 -64.299300 1.244004 1.824042 -2.884909 0.052719 1.672040 -2.645581 -3.402704 1.599210 3.402919 6.597621 -16.116980 -10.022937 0.107623 0.044234 -0.609419 0.000000 0.000000 0.000000 -5.527855 32.333655 1.280453 -80.534338 37.824024 -0.601476 -4.222641 -22.565495 -0.030349 -5.928905 9.280018 -0.484135 -0.080236 -0.164311 -0.000000 0.000000 0.000000 0.000000 0.000000 0.000000 0.000000 1.763535 -10.796276 -0.067219 45.996372 8.484366 5.713905 1.953476 43.592045 0.004124 3.170146 -1.101836 -0.027415 0.056909 -0.080464 0.000000 0.000000 0.000000 0.000000 0.000000 0.000000 0.000000 
-1.379476 17.978340 -0.878907 -128.202050 86.180981 -128.014936 -11.201153 2.501472 0.806463 -18.859921 18.708315 -21.515039 -2.376955 -0.055409 6.544232 0.759838 7.178944 11.576425 2.544600 -0.000000 -36.267400 9.434523 -4.543126 -0.720801 4.114669 -13.852652 4.439182 0.044463 -2.453395 29.509098 -1.909241 -11.626640 15.488298 -4.557400 0.000000 -62.264000 1.557464 1.682498 -2.600182 0.132850 1.522596 -2.588557 -3.377731 1.451302 3.402122 6.553338 -16.269457 -10.075390 0.106770 0.045416 -0.626327 0.000000 0.000000 0.000000 -5.653631 32.254055 1.337202 -81.065900 37.917491 -0.603956 -4.203322 -22.640667 -0.031184 -6.245892 9.587394 -0.527552 -0.076281 -0.165812 -0.000000 0.000000 0.000000 0.000000 0.000000 0.000000 0.000000 1.796195 -11.026412 -0.088079 46.005219 8.294869 5.687850 1.948199 43.727658 0.004169 3.121319 -0.979222 -0.023624 0.056886 -0.080647 0.000000 0.000000 0.000000 0.000000 0.000000 0.000000 0.000000 
-1.183679 17.928080 -0.916877 -128.964421 85.856943 -128.989981 -11.293675 2.518345 0.774759 -18.779129 18.678519 -20.864170 -2.316652 -0.055348 6.737279 0.848715 7.771225 10.652596 2.613500 0.000001 -32.746500 9.361474 -4.404070 -0.938352 3.860395 -14.341765 4.053326 0.011819 -2.454419 30.645142 -2.162367 -13.431541 12.847248 -4.806000 -0.000000 -59.822700 1.865735 1.530125 -2.321253 0.209290 1.362666 -2.534300 -3.360957 1.292656 3.399580 6.531558 -16.394481 -10.140957 0.096907 0.046074 -0.646697 0.000000 0.000000 0.000000 -5.790069 32.126789 1.398229 -81.620854 37.913820 -0.602886 -4.172784 -22.683720 -0.031610 -6.464582 9.835757 -0.560564 -0.072580 -0.166743 -0.000000 0.000000 0.000000 0.000000 0.000000 0.000000 0.000000 1.874914 -11.227623 -0.103439 46.070350 8.083826 5.630098 1.952894 43.818159 0.004187 3.082092 -0.873209 -0.020532 0.057263 -0.080431 0.000000 0.000000 0.000000 0.000000 0.000000 0.000000 0.000000 
